<mxfile host="app.diagrams.net" agent="Mozilla/5.0 (Windows NT 10.0; Win64; x64) AppleWebKit/537.36 (KHTML, like Gecko) Chrome/132.0.0.0 Safari/537.36" version="26.0.6">
  <diagram name="Page-1" id="Um-Nmc_tCYYyBnk7nqNn">
    <mxGraphModel dx="1290" dy="522" grid="1" gridSize="10" guides="1" tooltips="1" connect="1" arrows="1" fold="1" page="1" pageScale="1" pageWidth="850" pageHeight="1100" math="0" shadow="0">
      <root>
        <mxCell id="0" />
        <mxCell id="1" parent="0" />
        <mxCell id="9mknmGV8N8mMSFtFx9s_-2" value="" style="endArrow=classic;html=1;rounded=0;fillColor=#2F8FFF;exitX=0.25;exitY=1;exitDx=0;exitDy=0;strokeColor=#FF9300;entryX=0.5;entryY=0;entryDx=0;entryDy=0;" parent="1" source="7DaCR-LANdlwZR5ulkHN-38" target="7DaCR-LANdlwZR5ulkHN-45" edge="1">
          <mxGeometry width="50" height="50" relative="1" as="geometry">
            <mxPoint x="563" y="120" as="sourcePoint" />
            <mxPoint x="511" y="130" as="targetPoint" />
          </mxGeometry>
        </mxCell>
        <mxCell id="7DaCR-LANdlwZR5ulkHN-76" value="" style="endArrow=classic;html=1;rounded=0;exitX=0.25;exitY=1;exitDx=0;exitDy=0;entryX=0.75;entryY=0;entryDx=0;entryDy=0;strokeColor=#FF0000;" parent="1" source="7DaCR-LANdlwZR5ulkHN-67" target="7DaCR-LANdlwZR5ulkHN-78" edge="1">
          <mxGeometry width="50" height="50" relative="1" as="geometry">
            <mxPoint x="660" y="160" as="sourcePoint" />
            <mxPoint x="530" y="190" as="targetPoint" />
          </mxGeometry>
        </mxCell>
        <mxCell id="7DaCR-LANdlwZR5ulkHN-74" value="" style="endArrow=classic;html=1;rounded=0;fillColor=#2F8FFF;strokeColor=#FF9300;entryX=0.373;entryY=0.013;entryDx=0;entryDy=0;exitX=0.5;exitY=1;exitDx=0;exitDy=0;entryPerimeter=0;" parent="1" source="7DaCR-LANdlwZR5ulkHN-39" target="7DaCR-LANdlwZR5ulkHN-44" edge="1">
          <mxGeometry width="50" height="50" relative="1" as="geometry">
            <mxPoint x="606" y="178" as="sourcePoint" />
            <mxPoint x="745" y="290" as="targetPoint" />
          </mxGeometry>
        </mxCell>
        <mxCell id="7DaCR-LANdlwZR5ulkHN-73" value="" style="endArrow=classic;html=1;rounded=0;fillColor=#2F8FFF;exitX=1;exitY=0.5;exitDx=0;exitDy=0;strokeColor=#FF9300;entryX=0.285;entryY=0.033;entryDx=0;entryDy=0;entryPerimeter=0;" parent="1" source="7DaCR-LANdlwZR5ulkHN-38" target="7DaCR-LANdlwZR5ulkHN-40" edge="1">
          <mxGeometry width="50" height="50" relative="1" as="geometry">
            <mxPoint x="195" y="180" as="sourcePoint" />
            <mxPoint x="693.7600000000002" y="141" as="targetPoint" />
          </mxGeometry>
        </mxCell>
        <mxCell id="7DaCR-LANdlwZR5ulkHN-71" value="k" style="endArrow=classic;html=1;rounded=0;fillColor=#2F8FFF;strokeColor=#FF9300;entryX=0.5;entryY=0;entryDx=0;entryDy=0;exitX=0.5;exitY=1;exitDx=0;exitDy=0;" parent="1" source="7DaCR-LANdlwZR5ulkHN-39" target="7DaCR-LANdlwZR5ulkHN-49" edge="1">
          <mxGeometry width="50" height="50" relative="1" as="geometry">
            <mxPoint x="550" y="110" as="sourcePoint" />
            <mxPoint x="120" y="190" as="targetPoint" />
          </mxGeometry>
        </mxCell>
        <mxCell id="7DaCR-LANdlwZR5ulkHN-26" value="" style="endArrow=classic;html=1;rounded=0;fillColor=#2F8FFF;exitX=0;exitY=0.5;exitDx=0;exitDy=0;strokeColor=#FF8000;entryX=0.5;entryY=0;entryDx=0;entryDy=0;" parent="1" source="iTdhbFa7BGbrWZ-uTEYr-6" target="7DaCR-LANdlwZR5ulkHN-5" edge="1">
          <mxGeometry width="50" height="50" relative="1" as="geometry">
            <mxPoint x="265" y="120" as="sourcePoint" />
            <mxPoint x="315" y="170" as="targetPoint" />
          </mxGeometry>
        </mxCell>
        <mxCell id="7DaCR-LANdlwZR5ulkHN-29" value="" style="endArrow=classic;html=1;rounded=0;fillColor=#2F8FFF;exitX=0;exitY=0.5;exitDx=0;exitDy=0;strokeColor=#FF8000;entryX=0.25;entryY=0;entryDx=0;entryDy=0;" parent="1" source="iTdhbFa7BGbrWZ-uTEYr-6" target="7DaCR-LANdlwZR5ulkHN-13" edge="1">
          <mxGeometry width="50" height="50" relative="1" as="geometry">
            <mxPoint x="200" y="170" as="sourcePoint" />
            <mxPoint x="250" y="220" as="targetPoint" />
          </mxGeometry>
        </mxCell>
        <mxCell id="7DaCR-LANdlwZR5ulkHN-31" value="" style="endArrow=classic;html=1;rounded=0;fillColor=#2F8FFF;exitX=0.5;exitY=1;exitDx=0;exitDy=0;strokeColor=#FF8000;entryX=0.5;entryY=0;entryDx=0;entryDy=0;" parent="1" source="iTdhbFa7BGbrWZ-uTEYr-7" target="7DaCR-LANdlwZR5ulkHN-20" edge="1">
          <mxGeometry width="50" height="50" relative="1" as="geometry">
            <mxPoint x="135" y="180" as="sourcePoint" />
            <mxPoint x="268" y="370" as="targetPoint" />
          </mxGeometry>
        </mxCell>
        <mxCell id="7DaCR-LANdlwZR5ulkHN-30" value="" style="endArrow=classic;html=1;rounded=0;fillColor=#2F8FFF;exitX=0.5;exitY=1;exitDx=0;exitDy=0;strokeColor=#FF8000;entryX=0.5;entryY=0;entryDx=0;entryDy=0;" parent="1" source="iTdhbFa7BGbrWZ-uTEYr-7" target="7DaCR-LANdlwZR5ulkHN-16" edge="1">
          <mxGeometry width="50" height="50" relative="1" as="geometry">
            <mxPoint x="173" y="170" as="sourcePoint" />
            <mxPoint x="205" y="190" as="targetPoint" />
          </mxGeometry>
        </mxCell>
        <mxCell id="7DaCR-LANdlwZR5ulkHN-28" value="" style="endArrow=classic;html=1;rounded=0;fillColor=#2F8FFF;strokeColor=#FF8000;entryX=0.117;entryY=0.117;entryDx=0;entryDy=0;entryPerimeter=0;exitX=1;exitY=0.5;exitDx=0;exitDy=0;" parent="1" source="iTdhbFa7BGbrWZ-uTEYr-6" target="7DaCR-LANdlwZR5ulkHN-9" edge="1">
          <mxGeometry width="50" height="50" relative="1" as="geometry">
            <mxPoint x="160" y="130" as="sourcePoint" />
            <mxPoint x="240" y="210" as="targetPoint" />
          </mxGeometry>
        </mxCell>
        <mxCell id="iTdhbFa7BGbrWZ-uTEYr-2" value="enabled pi s" style="rounded=0;whiteSpace=wrap;html=1;" parent="1" vertex="1">
          <mxGeometry x="90" y="30" width="70" height="20" as="geometry" />
        </mxCell>
        <mxCell id="iTdhbFa7BGbrWZ-uTEYr-3" value="wf pi" style="rounded=0;whiteSpace=wrap;html=1;" parent="1" vertex="1">
          <mxGeometry x="30" y="80" width="60" height="20" as="geometry" />
        </mxCell>
        <mxCell id="iTdhbFa7BGbrWZ-uTEYr-4" value="s ⊫ pre (res pi)" style="rounded=0;whiteSpace=wrap;html=1;" parent="1" vertex="1">
          <mxGeometry x="140" y="80" width="100" height="20" as="geometry" />
        </mxCell>
        <mxCell id="iTdhbFa7BGbrWZ-uTEYr-6" value="ac := res n" style="rounded=0;whiteSpace=wrap;html=1;strokeColor=#FF9300;" parent="1" vertex="1">
          <mxGeometry x="90" y="120" width="70" height="20" as="geometry" />
        </mxCell>
        <mxCell id="iTdhbFa7BGbrWZ-uTEYr-7" value="ac2 = res2 n" style="rounded=0;whiteSpace=wrap;html=1;strokeColor=#FF9300;" parent="1" vertex="1">
          <mxGeometry x="87.5" y="150" width="75" height="20" as="geometry" />
        </mxCell>
        <mxCell id="iTdhbFa7BGbrWZ-uTEYr-8" value="maps" style="rounded=0;whiteSpace=wrap;html=1;strokeColor=#FF9300;" parent="1" vertex="1">
          <mxGeometry x="162.5" y="190" width="60" height="20" as="geometry" />
        </mxCell>
        <mxCell id="iTdhbFa7BGbrWZ-uTEYr-9" value="" style="endArrow=classic;html=1;rounded=0;exitX=0.25;exitY=1;exitDx=0;exitDy=0;entryX=0.5;entryY=0;entryDx=0;entryDy=0;" parent="1" source="iTdhbFa7BGbrWZ-uTEYr-2" target="iTdhbFa7BGbrWZ-uTEYr-3" edge="1">
          <mxGeometry width="50" height="50" relative="1" as="geometry">
            <mxPoint x="180" y="180" as="sourcePoint" />
            <mxPoint x="230" y="130" as="targetPoint" />
          </mxGeometry>
        </mxCell>
        <mxCell id="iTdhbFa7BGbrWZ-uTEYr-10" value="" style="endArrow=classic;html=1;rounded=0;entryX=0.5;entryY=0;entryDx=0;entryDy=0;exitX=0.75;exitY=1;exitDx=0;exitDy=0;" parent="1" source="iTdhbFa7BGbrWZ-uTEYr-2" target="iTdhbFa7BGbrWZ-uTEYr-4" edge="1">
          <mxGeometry width="50" height="50" relative="1" as="geometry">
            <mxPoint x="180" y="180" as="sourcePoint" />
            <mxPoint x="230" y="130" as="targetPoint" />
          </mxGeometry>
        </mxCell>
        <mxCell id="7DaCR-LANdlwZR5ulkHN-1" value="" style="endArrow=classic;html=1;rounded=0;exitX=0.5;exitY=1;exitDx=0;exitDy=0;entryX=0.5;entryY=0;entryDx=0;entryDy=0;strokeColor=#FF9300;" parent="1" source="iTdhbFa7BGbrWZ-uTEYr-3" target="iTdhbFa7BGbrWZ-uTEYr-6" edge="1">
          <mxGeometry width="50" height="50" relative="1" as="geometry">
            <mxPoint x="210" y="150" as="sourcePoint" />
            <mxPoint x="260" y="100" as="targetPoint" />
          </mxGeometry>
        </mxCell>
        <mxCell id="7DaCR-LANdlwZR5ulkHN-2" value="" style="endArrow=classic;html=1;rounded=0;exitX=0.5;exitY=1;exitDx=0;exitDy=0;entryX=0.5;entryY=0;entryDx=0;entryDy=0;strokeColor=#FF9300;" parent="1" source="iTdhbFa7BGbrWZ-uTEYr-6" target="iTdhbFa7BGbrWZ-uTEYr-7" edge="1">
          <mxGeometry width="50" height="50" relative="1" as="geometry">
            <mxPoint x="210" y="150" as="sourcePoint" />
            <mxPoint x="260" y="100" as="targetPoint" />
          </mxGeometry>
        </mxCell>
        <mxCell id="7DaCR-LANdlwZR5ulkHN-5" value="match ac args" style="rounded=0;whiteSpace=wrap;html=1;" parent="1" vertex="1">
          <mxGeometry x="10" y="180" width="80" height="20" as="geometry" />
        </mxCell>
        <mxCell id="7DaCR-LANdlwZR5ulkHN-6" value="" style="endArrow=classic;html=1;rounded=0;exitX=0.5;exitY=1;exitDx=0;exitDy=0;" parent="1" source="iTdhbFa7BGbrWZ-uTEYr-3" target="7DaCR-LANdlwZR5ulkHN-5" edge="1">
          <mxGeometry width="50" height="50" relative="1" as="geometry">
            <mxPoint x="210" y="210" as="sourcePoint" />
            <mxPoint x="260" y="160" as="targetPoint" />
          </mxGeometry>
        </mxCell>
        <mxCell id="7DaCR-LANdlwZR5ulkHN-7" value="s ⊫ map (pre ac)" style="rounded=0;whiteSpace=wrap;html=1;" parent="1" vertex="1">
          <mxGeometry x="230" y="200" width="100" height="20" as="geometry" />
        </mxCell>
        <mxCell id="7DaCR-LANdlwZR5ulkHN-8" value="" style="endArrow=classic;html=1;rounded=0;exitX=0.5;exitY=1;exitDx=0;exitDy=0;entryX=0.75;entryY=0;entryDx=0;entryDy=0;" parent="1" source="iTdhbFa7BGbrWZ-uTEYr-4" target="7DaCR-LANdlwZR5ulkHN-7" edge="1">
          <mxGeometry width="50" height="50" relative="1" as="geometry">
            <mxPoint x="210" y="210" as="sourcePoint" />
            <mxPoint x="260" y="160" as="targetPoint" />
          </mxGeometry>
        </mxCell>
        <mxCell id="7DaCR-LANdlwZR5ulkHN-9" value="s ∪ sf ⊫ map (pre&amp;nbsp;&lt;span style=&quot;background-color: transparent; color: light-dark(rgb(0, 0, 0), rgb(255, 255, 255));&quot;&gt;ac)&lt;/span&gt;" style="rounded=0;whiteSpace=wrap;html=1;" parent="1" vertex="1">
          <mxGeometry x="230" y="240" width="120" height="20" as="geometry" />
        </mxCell>
        <mxCell id="7DaCR-LANdlwZR5ulkHN-10" value="" style="endArrow=classic;html=1;rounded=0;exitX=0.5;exitY=1;exitDx=0;exitDy=0;entryX=0.5;entryY=0;entryDx=0;entryDy=0;" parent="1" source="7DaCR-LANdlwZR5ulkHN-7" target="7DaCR-LANdlwZR5ulkHN-9" edge="1">
          <mxGeometry width="50" height="50" relative="1" as="geometry">
            <mxPoint x="210" y="210" as="sourcePoint" />
            <mxPoint x="260" y="160" as="targetPoint" />
          </mxGeometry>
        </mxCell>
        <mxCell id="7DaCR-LANdlwZR5ulkHN-12" value="s ∪ sf ⊫ map (param_pre ac)" style="rounded=0;whiteSpace=wrap;html=1;" parent="1" vertex="1">
          <mxGeometry x="57.5" y="270" width="160" height="20" as="geometry" />
        </mxCell>
        <mxCell id="7DaCR-LANdlwZR5ulkHN-13" value="sf ⊫ map (param_pre ac)" style="rounded=0;whiteSpace=wrap;html=1;" parent="1" vertex="1">
          <mxGeometry x="57.5" y="230" width="140" height="20" as="geometry" />
        </mxCell>
        <mxCell id="7DaCR-LANdlwZR5ulkHN-14" value="" style="endArrow=classic;html=1;rounded=0;exitX=0.5;exitY=1;exitDx=0;exitDy=0;entryX=0.468;entryY=0.036;entryDx=0;entryDy=0;entryPerimeter=0;" parent="1" source="7DaCR-LANdlwZR5ulkHN-5" target="7DaCR-LANdlwZR5ulkHN-13" edge="1">
          <mxGeometry width="50" height="50" relative="1" as="geometry">
            <mxPoint x="210" y="280" as="sourcePoint" />
            <mxPoint x="260" y="230" as="targetPoint" />
          </mxGeometry>
        </mxCell>
        <mxCell id="7DaCR-LANdlwZR5ulkHN-15" value="" style="endArrow=classic;html=1;rounded=0;exitX=0.5;exitY=1;exitDx=0;exitDy=0;entryX=0.5;entryY=0;entryDx=0;entryDy=0;" parent="1" source="7DaCR-LANdlwZR5ulkHN-13" target="7DaCR-LANdlwZR5ulkHN-12" edge="1">
          <mxGeometry width="50" height="50" relative="1" as="geometry">
            <mxPoint x="210" y="280" as="sourcePoint" />
            <mxPoint x="260" y="230" as="targetPoint" />
          </mxGeometry>
        </mxCell>
        <mxCell id="7DaCR-LANdlwZR5ulkHN-16" value="s ∪ sf&amp;nbsp;⊫ pre&lt;span style=&quot;background-color: transparent; color: light-dark(rgb(0, 0, 0), rgb(255, 255, 255));&quot;&gt;&amp;nbsp;(res2 pi)&lt;/span&gt;" style="rounded=0;whiteSpace=wrap;html=1;" parent="1" vertex="1">
          <mxGeometry x="205" y="380" width="120" height="20" as="geometry" />
        </mxCell>
        <mxCell id="7DaCR-LANdlwZR5ulkHN-17" value="" style="endArrow=classic;html=1;rounded=0;exitX=0.5;exitY=1;exitDx=0;exitDy=0;entryX=0.25;entryY=0;entryDx=0;entryDy=0;" parent="1" source="7DaCR-LANdlwZR5ulkHN-12" target="7DaCR-LANdlwZR5ulkHN-33" edge="1">
          <mxGeometry width="50" height="50" relative="1" as="geometry">
            <mxPoint x="210" y="280" as="sourcePoint" />
            <mxPoint x="260" y="230" as="targetPoint" />
          </mxGeometry>
        </mxCell>
        <mxCell id="7DaCR-LANdlwZR5ulkHN-18" value="" style="endArrow=classic;html=1;rounded=0;exitX=0.544;exitY=1.017;exitDx=0;exitDy=0;exitPerimeter=0;entryX=0.75;entryY=0;entryDx=0;entryDy=0;" parent="1" source="7DaCR-LANdlwZR5ulkHN-9" target="7DaCR-LANdlwZR5ulkHN-33" edge="1">
          <mxGeometry width="50" height="50" relative="1" as="geometry">
            <mxPoint x="210" y="280" as="sourcePoint" />
            <mxPoint x="260" y="230" as="targetPoint" />
          </mxGeometry>
        </mxCell>
        <mxCell id="7DaCR-LANdlwZR5ulkHN-19" value="match2 ac2 pi" style="rounded=0;whiteSpace=wrap;html=1;" parent="1" vertex="1">
          <mxGeometry x="10" y="310" width="120" height="20" as="geometry" />
        </mxCell>
        <mxCell id="7DaCR-LANdlwZR5ulkHN-20" value="wf2 pi" style="rounded=0;whiteSpace=wrap;html=1;" parent="1" vertex="1">
          <mxGeometry x="42.5" y="370" width="120" height="20" as="geometry" />
        </mxCell>
        <mxCell id="7DaCR-LANdlwZR5ulkHN-21" value="enabled2&amp;nbsp;pi (s ∪ sf)" style="rounded=0;whiteSpace=wrap;html=1;" parent="1" vertex="1">
          <mxGeometry x="132.5" y="430" width="120" height="20" as="geometry" />
        </mxCell>
        <mxCell id="7DaCR-LANdlwZR5ulkHN-22" value="" style="endArrow=classic;html=1;rounded=0;exitX=0.5;exitY=1;exitDx=0;exitDy=0;entryX=0.25;entryY=0;entryDx=0;entryDy=0;" parent="1" source="7DaCR-LANdlwZR5ulkHN-20" target="7DaCR-LANdlwZR5ulkHN-21" edge="1">
          <mxGeometry width="50" height="50" relative="1" as="geometry">
            <mxPoint x="140" y="330" as="sourcePoint" />
            <mxPoint x="190" y="280" as="targetPoint" />
          </mxGeometry>
        </mxCell>
        <mxCell id="7DaCR-LANdlwZR5ulkHN-23" value="" style="endArrow=classic;html=1;rounded=0;exitX=0.5;exitY=1;exitDx=0;exitDy=0;entryX=0.75;entryY=0;entryDx=0;entryDy=0;" parent="1" source="7DaCR-LANdlwZR5ulkHN-16" target="7DaCR-LANdlwZR5ulkHN-21" edge="1">
          <mxGeometry width="50" height="50" relative="1" as="geometry">
            <mxPoint x="140" y="330" as="sourcePoint" />
            <mxPoint x="190" y="280" as="targetPoint" />
          </mxGeometry>
        </mxCell>
        <mxCell id="7DaCR-LANdlwZR5ulkHN-24" value="" style="endArrow=classic;html=1;rounded=0;exitX=0.5;exitY=1;exitDx=0;exitDy=0;entryX=0.5;entryY=0;entryDx=0;entryDy=0;" parent="1" source="7DaCR-LANdlwZR5ulkHN-19" target="7DaCR-LANdlwZR5ulkHN-20" edge="1">
          <mxGeometry width="50" height="50" relative="1" as="geometry">
            <mxPoint x="140" y="330" as="sourcePoint" />
            <mxPoint x="190" y="280" as="targetPoint" />
          </mxGeometry>
        </mxCell>
        <mxCell id="7DaCR-LANdlwZR5ulkHN-25" value="" style="endArrow=classic;html=1;rounded=0;exitX=0.5;exitY=1;exitDx=0;exitDy=0;entryX=0.25;entryY=0;entryDx=0;entryDy=0;" parent="1" source="7DaCR-LANdlwZR5ulkHN-5" target="7DaCR-LANdlwZR5ulkHN-19" edge="1">
          <mxGeometry width="50" height="50" relative="1" as="geometry">
            <mxPoint x="140" y="330" as="sourcePoint" />
            <mxPoint x="190" y="280" as="targetPoint" />
          </mxGeometry>
        </mxCell>
        <mxCell id="7DaCR-LANdlwZR5ulkHN-27" value="" style="endArrow=classic;html=1;rounded=0;fillColor=#2F8FFF;exitX=1;exitY=0.5;exitDx=0;exitDy=0;strokeColor=#FF8000;entryX=0.5;entryY=0;entryDx=0;entryDy=0;" parent="1" source="iTdhbFa7BGbrWZ-uTEYr-6" target="7DaCR-LANdlwZR5ulkHN-7" edge="1">
          <mxGeometry width="50" height="50" relative="1" as="geometry">
            <mxPoint x="180" y="150" as="sourcePoint" />
            <mxPoint x="230" y="200" as="targetPoint" />
          </mxGeometry>
        </mxCell>
        <mxCell id="7DaCR-LANdlwZR5ulkHN-32" value="" style="endArrow=classic;html=1;rounded=0;exitX=0.5;exitY=1;exitDx=0;exitDy=0;entryX=0.5;entryY=0;entryDx=0;entryDy=0;strokeColor=#FF9300;" parent="1" source="iTdhbFa7BGbrWZ-uTEYr-8" target="7DaCR-LANdlwZR5ulkHN-33" edge="1">
          <mxGeometry width="50" height="50" relative="1" as="geometry">
            <mxPoint x="130" y="290" as="sourcePoint" />
            <mxPoint x="180" y="240" as="targetPoint" />
          </mxGeometry>
        </mxCell>
        <mxCell id="7DaCR-LANdlwZR5ulkHN-33" value="s ∪ sf&amp;nbsp;⊫ map2&lt;span style=&quot;background-color: transparent; color: light-dark(rgb(0, 0, 0), rgb(255, 255, 255));&quot;&gt;&amp;nbsp;(param_pre ac &amp;amp; pre ac)&lt;/span&gt;" style="rounded=0;whiteSpace=wrap;html=1;" parent="1" vertex="1">
          <mxGeometry x="160" y="340" width="220" height="20" as="geometry" />
        </mxCell>
        <mxCell id="7DaCR-LANdlwZR5ulkHN-34" value="" style="endArrow=classic;html=1;rounded=0;exitX=0.5;exitY=1;exitDx=0;exitDy=0;entryX=0.5;entryY=0;entryDx=0;entryDy=0;" parent="1" source="7DaCR-LANdlwZR5ulkHN-33" target="7DaCR-LANdlwZR5ulkHN-16" edge="1">
          <mxGeometry width="50" height="50" relative="1" as="geometry">
            <mxPoint x="130" y="290" as="sourcePoint" />
            <mxPoint x="180" y="240" as="targetPoint" />
          </mxGeometry>
        </mxCell>
        <mxCell id="7DaCR-LANdlwZR5ulkHN-35" value="enabled2&amp;nbsp;pi (s ∪ sf)" style="rounded=0;whiteSpace=wrap;html=1;" parent="1" vertex="1">
          <mxGeometry x="545" y="10" width="120" height="20" as="geometry" />
        </mxCell>
        <mxCell id="7DaCR-LANdlwZR5ulkHN-36" value="wf2 pi" style="rounded=0;whiteSpace=wrap;html=1;" parent="1" vertex="1">
          <mxGeometry x="425" y="70" width="120" height="20" as="geometry" />
        </mxCell>
        <mxCell id="7DaCR-LANdlwZR5ulkHN-37" value="s ∪ sf&amp;nbsp;⊫ pre&lt;span style=&quot;background-color: transparent; color: light-dark(rgb(0, 0, 0), rgb(255, 255, 255));&quot;&gt;&amp;nbsp;(res2 pi)&lt;/span&gt;" style="rounded=0;whiteSpace=wrap;html=1;" parent="1" vertex="1">
          <mxGeometry x="670" y="60" width="120" height="20" as="geometry" />
        </mxCell>
        <mxCell id="7DaCR-LANdlwZR5ulkHN-38" value="ac2 = res2 n" style="rounded=0;whiteSpace=wrap;html=1;strokeColor=#FF9300;" parent="1" vertex="1">
          <mxGeometry x="552.5" y="100" width="75" height="20" as="geometry" />
        </mxCell>
        <mxCell id="7DaCR-LANdlwZR5ulkHN-39" value="ac := res n" style="rounded=0;whiteSpace=wrap;html=1;strokeColor=#FF9300;" parent="1" vertex="1">
          <mxGeometry x="550" y="130" width="70" height="20" as="geometry" />
        </mxCell>
        <mxCell id="7DaCR-LANdlwZR5ulkHN-40" value="s ∪ sf&amp;nbsp;⊫ map&lt;span style=&quot;background-color: transparent; color: light-dark(rgb(0, 0, 0), rgb(255, 255, 255));&quot;&gt;&amp;nbsp;(param_pre ac &amp;amp; pre ac)&lt;/span&gt;" style="rounded=0;whiteSpace=wrap;html=1;" parent="1" vertex="1">
          <mxGeometry x="630" y="140" width="220" height="20" as="geometry" />
        </mxCell>
        <mxCell id="7DaCR-LANdlwZR5ulkHN-41" value="match2 ac2 pi" style="rounded=0;whiteSpace=wrap;html=1;" parent="1" vertex="1">
          <mxGeometry x="411.25" y="120" width="120" height="20" as="geometry" />
        </mxCell>
        <mxCell id="7DaCR-LANdlwZR5ulkHN-42" value="s ∪ sf ⊫ map (pre&amp;nbsp;&lt;span style=&quot;background-color: transparent; color: light-dark(rgb(0, 0, 0), rgb(255, 255, 255));&quot;&gt;ac)&lt;/span&gt;" style="rounded=0;whiteSpace=wrap;html=1;" parent="1" vertex="1">
          <mxGeometry x="720" y="190" width="120" height="20" as="geometry" />
        </mxCell>
        <mxCell id="7DaCR-LANdlwZR5ulkHN-43" value="s ⊫ map (pre ac)" style="rounded=0;whiteSpace=wrap;html=1;" parent="1" vertex="1">
          <mxGeometry x="730" y="230" width="100" height="20" as="geometry" />
        </mxCell>
        <mxCell id="7DaCR-LANdlwZR5ulkHN-44" value="s ⊫ pre (res pi)" style="rounded=0;whiteSpace=wrap;html=1;" parent="1" vertex="1">
          <mxGeometry x="697.5" y="300" width="100" height="20" as="geometry" />
        </mxCell>
        <mxCell id="7DaCR-LANdlwZR5ulkHN-45" value="match ac args" style="rounded=0;whiteSpace=wrap;html=1;" parent="1" vertex="1">
          <mxGeometry x="458.75" y="290" width="80" height="20" as="geometry" />
        </mxCell>
        <mxCell id="7DaCR-LANdlwZR5ulkHN-46" value="s ∪ sf ⊫ map (param_pre ac)" style="rounded=0;whiteSpace=wrap;html=1;" parent="1" vertex="1">
          <mxGeometry x="538.75" y="210" width="160" height="20" as="geometry" />
        </mxCell>
        <mxCell id="7DaCR-LANdlwZR5ulkHN-47" value="sf ⊫ map (param_pre ac)" style="rounded=0;whiteSpace=wrap;html=1;" parent="1" vertex="1">
          <mxGeometry x="531.25" y="250" width="140" height="20" as="geometry" />
        </mxCell>
        <mxCell id="7DaCR-LANdlwZR5ulkHN-49" value="wf pi" style="rounded=0;whiteSpace=wrap;html=1;" parent="1" vertex="1">
          <mxGeometry x="520" y="340" width="60" height="20" as="geometry" />
        </mxCell>
        <mxCell id="7DaCR-LANdlwZR5ulkHN-50" value="enabled pi s" style="rounded=0;whiteSpace=wrap;html=1;" parent="1" vertex="1">
          <mxGeometry x="620" y="380" width="70" height="20" as="geometry" />
        </mxCell>
        <mxCell id="7DaCR-LANdlwZR5ulkHN-51" value="" style="endArrow=classic;html=1;rounded=0;exitX=0.5;exitY=1;exitDx=0;exitDy=0;entryX=0.5;entryY=0;entryDx=0;entryDy=0;" parent="1" source="7DaCR-LANdlwZR5ulkHN-35" target="7DaCR-LANdlwZR5ulkHN-36" edge="1">
          <mxGeometry width="50" height="50" relative="1" as="geometry">
            <mxPoint x="470" y="270" as="sourcePoint" />
            <mxPoint x="520" y="220" as="targetPoint" />
          </mxGeometry>
        </mxCell>
        <mxCell id="7DaCR-LANdlwZR5ulkHN-52" value="" style="endArrow=classic;html=1;rounded=0;exitX=0.5;exitY=1;exitDx=0;exitDy=0;entryX=0.5;entryY=0;entryDx=0;entryDy=0;" parent="1" source="7DaCR-LANdlwZR5ulkHN-36" target="7DaCR-LANdlwZR5ulkHN-41" edge="1">
          <mxGeometry width="50" height="50" relative="1" as="geometry">
            <mxPoint x="600" y="60" as="sourcePoint" />
            <mxPoint x="495" y="80" as="targetPoint" />
          </mxGeometry>
        </mxCell>
        <mxCell id="7DaCR-LANdlwZR5ulkHN-53" value="" style="endArrow=classic;html=1;rounded=0;exitX=0.75;exitY=1;exitDx=0;exitDy=0;entryX=0.5;entryY=0;entryDx=0;entryDy=0;" parent="1" source="7DaCR-LANdlwZR5ulkHN-35" target="7DaCR-LANdlwZR5ulkHN-37" edge="1">
          <mxGeometry width="50" height="50" relative="1" as="geometry">
            <mxPoint x="610" y="70" as="sourcePoint" />
            <mxPoint x="505" y="90" as="targetPoint" />
          </mxGeometry>
        </mxCell>
        <mxCell id="7DaCR-LANdlwZR5ulkHN-54" value="" style="endArrow=classic;html=1;rounded=0;exitX=0.5;exitY=1;exitDx=0;exitDy=0;entryX=0.679;entryY=0.06;entryDx=0;entryDy=0;entryPerimeter=0;" parent="1" source="7DaCR-LANdlwZR5ulkHN-37" target="7DaCR-LANdlwZR5ulkHN-40" edge="1">
          <mxGeometry width="50" height="50" relative="1" as="geometry">
            <mxPoint x="620" y="80" as="sourcePoint" />
            <mxPoint x="780" y="140" as="targetPoint" />
          </mxGeometry>
        </mxCell>
        <mxCell id="7DaCR-LANdlwZR5ulkHN-55" value="" style="endArrow=classic;html=1;rounded=0;exitX=0.652;exitY=1.007;exitDx=0;exitDy=0;entryX=0.5;entryY=0;entryDx=0;entryDy=0;exitPerimeter=0;" parent="1" source="7DaCR-LANdlwZR5ulkHN-40" target="7DaCR-LANdlwZR5ulkHN-42" edge="1">
          <mxGeometry width="50" height="50" relative="1" as="geometry">
            <mxPoint x="780" y="160" as="sourcePoint" />
            <mxPoint x="790" y="180" as="targetPoint" />
          </mxGeometry>
        </mxCell>
        <mxCell id="7DaCR-LANdlwZR5ulkHN-56" value="" style="endArrow=classic;html=1;rounded=0;exitX=0.5;exitY=1;exitDx=0;exitDy=0;entryX=0.5;entryY=0;entryDx=0;entryDy=0;" parent="1" source="7DaCR-LANdlwZR5ulkHN-42" target="7DaCR-LANdlwZR5ulkHN-43" edge="1">
          <mxGeometry width="50" height="50" relative="1" as="geometry">
            <mxPoint x="790" y="200" as="sourcePoint" />
            <mxPoint x="780" y="230" as="targetPoint" />
            <Array as="points">
              <mxPoint x="780" y="220" />
            </Array>
          </mxGeometry>
        </mxCell>
        <mxCell id="7DaCR-LANdlwZR5ulkHN-57" value="" style="endArrow=classic;html=1;rounded=0;exitX=0.5;exitY=1;exitDx=0;exitDy=0;entryX=0.613;entryY=0.053;entryDx=0;entryDy=0;entryPerimeter=0;" parent="1" source="7DaCR-LANdlwZR5ulkHN-43" target="7DaCR-LANdlwZR5ulkHN-44" edge="1">
          <mxGeometry width="50" height="50" relative="1" as="geometry">
            <mxPoint x="780" y="250" as="sourcePoint" />
            <mxPoint x="770" y="290" as="targetPoint" />
          </mxGeometry>
        </mxCell>
        <mxCell id="7DaCR-LANdlwZR5ulkHN-59" value="" style="endArrow=classic;html=1;rounded=0;exitX=0.533;exitY=1.053;exitDx=0;exitDy=0;entryX=0.75;entryY=0;entryDx=0;entryDy=0;exitPerimeter=0;" parent="1" source="7DaCR-LANdlwZR5ulkHN-44" target="7DaCR-LANdlwZR5ulkHN-50" edge="1">
          <mxGeometry width="50" height="50" relative="1" as="geometry">
            <mxPoint x="770" y="310" as="sourcePoint" />
            <mxPoint x="555" y="140" as="targetPoint" />
          </mxGeometry>
        </mxCell>
        <mxCell id="7DaCR-LANdlwZR5ulkHN-60" value="" style="endArrow=classic;html=1;rounded=0;exitX=0.5;exitY=1;exitDx=0;exitDy=0;entryX=0.25;entryY=0;entryDx=0;entryDy=0;" parent="1" source="7DaCR-LANdlwZR5ulkHN-49" target="7DaCR-LANdlwZR5ulkHN-50" edge="1">
          <mxGeometry width="50" height="50" relative="1" as="geometry">
            <mxPoint x="670" y="130" as="sourcePoint" />
            <mxPoint x="565" y="150" as="targetPoint" />
          </mxGeometry>
        </mxCell>
        <mxCell id="7DaCR-LANdlwZR5ulkHN-61" value="" style="endArrow=classic;html=1;rounded=0;exitX=0.5;exitY=1;exitDx=0;exitDy=0;entryX=0.5;entryY=0;entryDx=0;entryDy=0;" parent="1" source="7DaCR-LANdlwZR5ulkHN-45" target="7DaCR-LANdlwZR5ulkHN-49" edge="1">
          <mxGeometry width="50" height="50" relative="1" as="geometry">
            <mxPoint x="680" y="140" as="sourcePoint" />
            <mxPoint x="575" y="160" as="targetPoint" />
          </mxGeometry>
        </mxCell>
        <mxCell id="7DaCR-LANdlwZR5ulkHN-62" value="" style="endArrow=classic;html=1;rounded=0;exitX=0.44;exitY=1.007;exitDx=0;exitDy=0;entryX=0.75;entryY=0;entryDx=0;entryDy=0;exitPerimeter=0;" parent="1" source="7DaCR-LANdlwZR5ulkHN-40" target="7DaCR-LANdlwZR5ulkHN-46" edge="1">
          <mxGeometry width="50" height="50" relative="1" as="geometry">
            <mxPoint x="725" y="160" as="sourcePoint" />
            <mxPoint x="585" y="170" as="targetPoint" />
          </mxGeometry>
        </mxCell>
        <mxCell id="7DaCR-LANdlwZR5ulkHN-63" value="" style="endArrow=classic;html=1;rounded=0;exitX=0.5;exitY=1;exitDx=0;exitDy=0;entryX=0.5;entryY=0;entryDx=0;entryDy=0;strokeColor=#FF9300;" parent="1" source="7DaCR-LANdlwZR5ulkHN-38" target="7DaCR-LANdlwZR5ulkHN-39" edge="1">
          <mxGeometry width="50" height="50" relative="1" as="geometry">
            <mxPoint x="700" y="160" as="sourcePoint" />
            <mxPoint x="595" y="180" as="targetPoint" />
          </mxGeometry>
        </mxCell>
        <mxCell id="7DaCR-LANdlwZR5ulkHN-64" value="" style="endArrow=classic;html=1;rounded=0;exitX=0.444;exitY=1.15;exitDx=0;exitDy=0;entryX=0.5;entryY=0;entryDx=0;entryDy=0;exitPerimeter=0;" parent="1" source="7DaCR-LANdlwZR5ulkHN-46" target="7DaCR-LANdlwZR5ulkHN-47" edge="1">
          <mxGeometry width="50" height="50" relative="1" as="geometry">
            <mxPoint x="710" y="170" as="sourcePoint" />
            <mxPoint x="605" y="190" as="targetPoint" />
          </mxGeometry>
        </mxCell>
        <mxCell id="7DaCR-LANdlwZR5ulkHN-65" value="" style="endArrow=classic;html=1;rounded=0;exitX=0.5;exitY=1;exitDx=0;exitDy=0;entryX=0.75;entryY=0;entryDx=0;entryDy=0;" parent="1" source="7DaCR-LANdlwZR5ulkHN-47" target="7DaCR-LANdlwZR5ulkHN-45" edge="1">
          <mxGeometry width="50" height="50" relative="1" as="geometry">
            <mxPoint x="720" y="180" as="sourcePoint" />
            <mxPoint x="615" y="200" as="targetPoint" />
          </mxGeometry>
        </mxCell>
        <mxCell id="7DaCR-LANdlwZR5ulkHN-67" value="maps" style="rounded=0;whiteSpace=wrap;html=1;strokeColor=#FF9300;" parent="1" vertex="1">
          <mxGeometry x="640" y="90" width="60" height="20" as="geometry" />
        </mxCell>
        <mxCell id="7DaCR-LANdlwZR5ulkHN-69" value="" style="endArrow=classic;html=1;rounded=0;entryX=0.452;entryY=0.033;entryDx=0;entryDy=0;exitX=0.5;exitY=1;exitDx=0;exitDy=0;entryPerimeter=0;strokeColor=#FF9300;" parent="1" source="7DaCR-LANdlwZR5ulkHN-67" target="7DaCR-LANdlwZR5ulkHN-40" edge="1">
          <mxGeometry width="50" height="50" relative="1" as="geometry">
            <mxPoint x="620" y="180" as="sourcePoint" />
            <mxPoint x="725" y="140" as="targetPoint" />
          </mxGeometry>
        </mxCell>
        <mxCell id="7DaCR-LANdlwZR5ulkHN-70" value="" style="endArrow=classic;html=1;rounded=0;entryX=0.25;entryY=0;entryDx=0;entryDy=0;exitX=0.75;exitY=1;exitDx=0;exitDy=0;strokeColor=#FF9300;" parent="1" source="7DaCR-LANdlwZR5ulkHN-36" target="7DaCR-LANdlwZR5ulkHN-38" edge="1">
          <mxGeometry width="50" height="50" relative="1" as="geometry">
            <mxPoint x="470" y="270" as="sourcePoint" />
            <mxPoint x="520" y="220" as="targetPoint" />
          </mxGeometry>
        </mxCell>
        <mxCell id="7DaCR-LANdlwZR5ulkHN-72" value="" style="endArrow=classic;html=1;rounded=0;fillColor=#2F8FFF;exitX=0;exitY=0.5;exitDx=0;exitDy=0;strokeColor=#FF9300;entryX=0.75;entryY=0;entryDx=0;entryDy=0;" parent="1" source="7DaCR-LANdlwZR5ulkHN-38" target="7DaCR-LANdlwZR5ulkHN-41" edge="1">
          <mxGeometry width="50" height="50" relative="1" as="geometry">
            <mxPoint x="552" y="110" as="sourcePoint" />
            <mxPoint x="530" y="310" as="targetPoint" />
          </mxGeometry>
        </mxCell>
        <mxCell id="7DaCR-LANdlwZR5ulkHN-77" value="len (params ac2) = len args" style="rounded=0;whiteSpace=wrap;html=1;strokeColor=#FF0000;shadow=0;" parent="1" vertex="1">
          <mxGeometry x="360" y="180" width="150" height="20" as="geometry" />
        </mxCell>
        <mxCell id="7DaCR-LANdlwZR5ulkHN-78" value="len (params ac) = len args" style="rounded=0;whiteSpace=wrap;html=1;strokeColor=#FF0000;" parent="1" vertex="1">
          <mxGeometry x="360" y="230" width="150" height="20" as="geometry" />
        </mxCell>
        <mxCell id="7DaCR-LANdlwZR5ulkHN-79" value="" style="endArrow=classic;html=1;rounded=0;entryX=0.5;entryY=0;entryDx=0;entryDy=0;exitX=0.5;exitY=1;exitDx=0;exitDy=0;" parent="1" source="7DaCR-LANdlwZR5ulkHN-41" target="7DaCR-LANdlwZR5ulkHN-77" edge="1">
          <mxGeometry width="50" height="50" relative="1" as="geometry">
            <mxPoint x="540" y="240" as="sourcePoint" />
            <mxPoint x="590" y="190" as="targetPoint" />
          </mxGeometry>
        </mxCell>
        <mxCell id="7DaCR-LANdlwZR5ulkHN-80" value="" style="endArrow=classic;html=1;rounded=0;exitX=0.5;exitY=1;exitDx=0;exitDy=0;entryX=0.5;entryY=0;entryDx=0;entryDy=0;" parent="1" source="7DaCR-LANdlwZR5ulkHN-78" target="7DaCR-LANdlwZR5ulkHN-45" edge="1">
          <mxGeometry width="50" height="50" relative="1" as="geometry">
            <mxPoint x="540" y="240" as="sourcePoint" />
            <mxPoint x="590" y="190" as="targetPoint" />
          </mxGeometry>
        </mxCell>
        <mxCell id="7DaCR-LANdlwZR5ulkHN-81" value="" style="endArrow=classic;html=1;rounded=0;entryX=0.5;entryY=0;entryDx=0;entryDy=0;exitX=0.5;exitY=1;exitDx=0;exitDy=0;strokeColor=#FF0000;" parent="1" source="7DaCR-LANdlwZR5ulkHN-77" target="7DaCR-LANdlwZR5ulkHN-78" edge="1">
          <mxGeometry width="50" height="50" relative="1" as="geometry">
            <mxPoint x="540" y="240" as="sourcePoint" />
            <mxPoint x="590" y="190" as="targetPoint" />
          </mxGeometry>
        </mxCell>
        <mxCell id="9mknmGV8N8mMSFtFx9s_-5" value="" style="endArrow=classic;html=1;rounded=0;fillColor=#2F8FFF;exitX=0.75;exitY=1;exitDx=0;exitDy=0;strokeColor=#FF9300;entryX=0.203;entryY=0.05;entryDx=0;entryDy=0;entryPerimeter=0;" parent="1" source="7DaCR-LANdlwZR5ulkHN-38" target="7DaCR-LANdlwZR5ulkHN-42" edge="1">
          <mxGeometry width="50" height="50" relative="1" as="geometry">
            <mxPoint x="581" y="130" as="sourcePoint" />
            <mxPoint x="509" y="300" as="targetPoint" />
          </mxGeometry>
        </mxCell>
      </root>
    </mxGraphModel>
  </diagram>
</mxfile>
